<svg xmlns="http://www.w3.org/2000/svg" viewBox="0 0 248 248"><defs><style>.cls-1{fill:#008fd3;}.cls-2,.cls-3,.cls-4{fill:#f0ab00;}.cls-3{opacity:0.7;}.cls-4{opacity:0.4;}</style></defs><title>282069-picrogram</title><g id="color_band" data-name="color band"><path class="cls-1" d="M198,156c0,3.93-12.74,8.9-35,11.74A311.76,311.76,0,0,1,124,170h0a311.74,311.74,0,0,1-39-2.26C62.74,164.9,50,159.93,50,156H46v32c0,5.47,8,9.94,23.85,13.27,4.61,1,9.7,1.8,15.15,2.48A319.56,319.56,0,0,0,124,206h0a319.55,319.55,0,0,0,39-2.25c5.45-.68,10.54-1.51,15.15-2.48C194,197.94,202,193.47,202,188V156Z"/></g><g id="_100_band" data-name="100% band"><path class="cls-2" d="M198,156c0,3.93-12.74,8.9-35,11.74v36c5.45-.68,10.54-1.51,15.15-2.48C194,197.94,202,193.47,202,188V156Z"/></g><g id="_70_band" data-name="70% band"><path class="cls-3" d="M124,170v36a319.55,319.55,0,0,0,39-2.25v-36A311.76,311.76,0,0,1,124,170Z"/></g><g id="_40_band" data-name="40% band"><path class="cls-4" d="M124,170a311.74,311.74,0,0,1-39-2.26v36A319.56,319.56,0,0,0,124,206h0V170Z"/></g><g id="outlines_--_combound_path" data-name="outlines -- combound path"><path d="M178.15,46.73C163.67,43.68,144.43,42,124,42s-39.67,1.68-54.15,4.73C54,50.06,46,54.53,46,60v96c0,5.47,8,9.94,23.85,13.27,14.49,3,33.72,4.73,54.15,4.73s39.67-1.68,54.15-4.73C194,165.94,202,161.47,202,156V60C202,54.53,194,50.06,178.15,46.73ZM124,46c45.85,0,74,8.15,74,14s-28.15,14-74,14S50,65.85,50,60,78.15,46,124,46Zm0,124c-45.85,0-74-8.15-74-14V130.17q5.78,4.12,19.85,7.1c14.49,3,33.72,4.73,54.15,4.73s39.67-1.68,54.15-4.73q14.07-3,19.85-7.1V156C198,161.85,169.85,170,124,170Zm0-32c-45.85,0-74-8.15-74-14V98.17q5.78,4.12,19.85,7.1c14.49,3,33.72,4.73,54.15,4.73s39.67-1.68,54.15-4.73q14.07-3,19.85-7.1V124C198,129.85,169.85,138,124,138Zm0-32c-45.85,0-74-8.15-74-14V66.17q5.78,4.12,19.85,7.1C84.33,76.32,103.57,78,124,78s39.67-1.68,54.15-4.73q14.07-3,19.85-7.1V92C198,97.85,169.85,106,124,106ZM72.81,151.84a2,2,0,0,1-2,1.6,2,2,0,0,1-.41,0c-3.37-.69-6.45-1.46-9.17-2.27a2,2,0,1,1,1.14-3.83c2.6.78,5.57,1.51,8.83,2.18A2,2,0,0,1,72.81,151.84Zm0-32.1a2,2,0,0,1-2.36,1.56c-3.36-.69-6.44-1.46-9.17-2.27a2,2,0,1,1,1.14-3.83c2.61.78,5.58,1.51,8.83,2.18A2,2,0,0,1,72.81,119.74Zm0-31.34A2,2,0,0,1,70.44,90c-3.37-.69-6.45-1.46-9.17-2.27a2,2,0,1,1,1.14-3.83C65,84.64,68,85.37,71.25,86A2,2,0,0,1,72.81,88.4Z"/></g></svg>